PathFileType	4	(X/Y/Z)	/Users/itak/Documents/Research/Walk-IL/dataset/trc/00166_00008.trc
DataRate	CameraRate	NumFrames	NumMarkers	Units	OrigDataRate	OrigDataStartFrame	OrigNumFrames
100.000000	100.000000	4	53	mm	100.000000	159	639
Frame#	Time	RPSI			LPSI			L3			STRN			T10			C7			CLAV			RBAK			LBAK			LSHO			LUPA			LAEL			LAOL			LWTS			LWPS			LFRA			LIFD			LHPS			LHTS			RSHO			RUPA			RAEL			RAOL			RWTS			RWPS			RFRA			RIFD			RHTS			RHPS			RBHD			LFHD			RFHD			LBHD			LHIP			RHIP			RASI			LASI			LKNE			LTHI			LANK			LTIP			LTOE			LMT1			LMT5			LHEE			RKNE			RTHI			RANK			RTIP			RTOE			RMT1			RMT5			RHEE			
		X1	Y1	Z1	X2	Y2	Z2	X3	Y3	Z3	X4	Y4	Z4	X5	Y5	Z5	X6	Y6	Z6	X7	Y7	Z7	X8	Y8	Z8	X9	Y9	Z9	X10	Y10	Z10	X11	Y11	Z11	X12	Y12	Z12	X13	Y13	Z13	X14	Y14	Z14	X15	Y15	Z15	X16	Y16	Z16	X17	Y17	Z17	X18	Y18	Z18	X19	Y19	Z19	X20	Y20	Z20	X21	Y21	Z21	X22	Y22	Z22	X23	Y23	Z23	X24	Y24	Z24	X25	Y25	Z25	X26	Y26	Z26	X27	Y27	Z27	X28	Y28	Z28	X29	Y29	Z29	X30	Y30	Z30	X31	Y31	Z31	X32	Y32	Z32	X33	Y33	Z33	X34	Y34	Z34	X35	Y35	Z35	X36	Y36	Z36	X37	Y37	Z37	X38	Y38	Z38	X39	Y39	Z39	X40	Y40	Z40	X41	Y41	Z41	X42	Y42	Z42	X43	Y43	Z43	X44	Y44	Z44	X45	Y45	Z45	X46	Y46	Z46	X47	Y47	Z47	X48	Y48	Z48	X49	Y49	Z49	X50	Y50	Z50	X51	Y51	Z51	X52	Y52	Z52	X53	Y53	Z53	

160	1.59	-1923.635986328125	1058.605102539062	-16.72308921813965	-1913.294311523438	1057.269165039062	-139.7938537597656	-1916.069091796875	1096.147338867188	-76.52076721191406	-1650.264526367188	1302.434326171875	-66.99729156494141	-1945.34765625	1251.255004882812	-85.97016143798828	-1880.078002929688	1520.834350585938	-91.33457946777344	-1677.962036132812	1416.971557617188	-76.84418487548828	-1952.514770507812	1344.70751953125	11.00637817382812	-1879.845092773438	1496.029296875	-193.677978515625	-1797.79248046875	1483.91943359375	-267.4365844726562	-1819.839233398438	1351.031005859375	-343.8198547363281	-1789.482421875	1131.9482421875	-360.6333312988281	-1846.050903320312	1115.169189453125	-295.4025573730469	-1672.151977539062	906.7928466796875	-309.0568237304688	-1744.957153320312	881.3165283203125	-363.1277465820312	-1767.643920898438	1022.367980957031	-371.0875244140625	-1660.3134765625	727.06787109375	-274.9210205078125	-1722.352783203125	811.7662963867188	-352.1879577636719	-1654.367065429688	827.2633666992188	-327.241943359375	-1828.681762695312	1498.456665039062	92.20040893554688	-1851.803833007812	1430.365112304688	160.2152709960938	-1858.555419921875	1139.206665039062	207.6418762207031	-1860.874145507812	1133.673828125	108.4794769287109	-1709.56884765625	916.9060668945312	188.3141174316406	-1784.93798828125	897.9093017578125	235.0376739501953	-1830.78369140625	1067.5224609375	225.3775939941406	-1687.067260742188	729.3292846679688	164.4074096679688	-1680.09814453125	823.6143798828125	195.8423614501953	-1751.930786132812	814.7863159179688	230.6902313232422	-1852.2275390625	1673.0166015625	-10.47393131256104	-1698.6494140625	1747.88427734375	-146.5782470703125	-1692.965454101562	1746.921508789062	-17.22747802734375	-1864.504272460938	1679.9873046875	-147.7987213134766	-1804.516235351562	990.7286376953125	-252.2147521972656	-1777.570922851562	1016.323059082031	115.6924743652344	-1689.987915039062	1043.212646484375	65.53326416015625	-1681.424194335938	1028.669555664062	-192.7464447021484	-1800.132568359375	496.6412658691406	-229.1442260742188	-1786.82568359375	638.6087036132812	-252.0149078369141	-1887.567504882812	40.61236572265625	-245.1013946533203	-1843.256469726562	276.7846984863281	-251.0478668212891	-1667.035888671875	39.38341522216797	-242.1454315185547	-1711.800415039062	39.51558303833008	-189.0082397460938	-1784.480712890625	32.49808120727539	-295.6794738769531	-1929.852905273438	39.65976715087891	-169.9040069580078	-1756.2705078125	514.8816528320312	94.50860595703125	-1719.623657226562	786.5834350585938	128.0245666503906	-1873.44140625	36.4974250793457	89.06585693359375	-1751.760131835938	391.9085998535156	78.65110015869141	-1648.593383789062	40.98341369628906	73.18421936035156	-1700.131591796875	38.48908233642578	22.99332046508789	-1762.611083984375	34.48788452148438	132.808349609375	-1917.419311523438	35.12334442138672	16.96985244750977	
161	1.6	-1923.303955078125	1058.521240234375	-15.79474353790283	-1913.09716796875	1057.235473632812	-138.8265380859375	-1915.884887695312	1096.099487304688	-75.56067657470703	-1649.87158203125	1302.311645507812	-66.00149536132812	-1945.06640625	1251.281860351562	-84.93929290771484	-1879.647827148438	1520.810668945312	-90.13627624511719	-1677.541870117188	1416.865844726562	-75.76222991943359	-1952.156005859375	1344.637939453125	12.09975910186768	-1879.455322265625	1496.083618164062	-192.4954528808594	-1797.432250976562	1483.994262695312	-266.2747497558594	-1819.5927734375	1351.174438476562	-342.7565612792969	-1789.3837890625	1132.092529296875	-359.7845764160156	-1845.969970703125	1115.31201171875	-294.5580139160156	-1672.290771484375	906.6532592773438	-308.3606872558594	-1745.211791992188	881.4041137695312	-362.5420227050781	-1767.672973632812	1022.503967285156	-370.3426513671875	-1660.698364257812	726.63330078125	-274.1911926269531	-1722.903564453125	811.7572631835938	-351.545166015625	-1654.84130859375	826.9859008789062	-326.5575866699219	-1828.2509765625	1498.277954101562	93.36791229248047	-1851.455078125	1430.180908203125	161.32763671875	-1858.561767578125	1138.987182617188	208.5253143310547	-1860.923461914062	1133.576538085938	109.3321228027344	-1709.739624023438	916.6182861328125	189.0014495849609	-1785.1337890625	897.5962524414062	235.6728210449219	-1830.855590820312	1067.247314453125	226.20361328125	-1687.345336914062	729.0381469726562	164.8224945068359	-1680.360229492188	823.3109741210938	196.3791961669922	-1752.201049804688	814.4647827148438	231.2612762451172	-1851.416625976562	1672.992065429688	-9.148959159851074	-1697.682006835938	1747.716918945312	-145.1742095947266	-1691.954833984375	1746.566040039062	-15.82495212554932	-1863.683837890625	1680.17822265625	-146.4754180908203	-1804.5234375	990.7913208007812	-251.4633026123047	-1777.08447265625	1016.219055175781	116.5796203613281	-1689.591430664062	1043.0439453125	66.28761291503906	-1681.362182617188	1028.673095703125	-192.0226898193359	-1800.05712890625	496.6744384765625	-228.7550201416016	-1786.824096679688	638.689208984375	-251.5236053466797	-1887.578002929688	40.60029602050781	-245.1045684814453	-1843.226806640625	276.8201293945312	-250.8026428222656	-1667.0576171875	39.39505767822266	-242.152099609375	-1711.817626953125	39.53286361694336	-189.0267944335938	-1784.4873046875	32.4482536315918	-295.6996154785156	-1929.857055664062	39.65363693237305	-169.9031982421875	-1755.910034179688	514.753662109375	94.76301574707031	-1719.222900390625	786.3108520507812	128.4755706787109	-1873.425537109375	36.5146369934082	89.02818298339844	-1751.473876953125	391.7494201660156	78.78246307373047	-1648.593627929688	40.98164367675781	73.14195251464844	-1700.10693359375	38.408935546875	22.90325927734375	-1762.67919921875	34.55937194824219	132.6977691650391	-1917.406982421875	35.08316802978516	16.95910453796387	
162	1.61	-1922.925415039062	1058.420288085938	-14.8169641494751	-1912.874877929688	1057.209716796875	-137.8301849365234	-1915.66748046875	1096.06103515625	-74.58666229248047	-1649.433471679688	1302.211059570312	-64.96367645263672	-1944.755249023438	1251.30908203125	-83.85869598388672	-1879.191772460938	1520.793212890625	-88.887451171875	-1677.09228515625	1416.773071289062	-74.64967346191406	-1951.755126953125	1344.56787109375	13.25129413604736	-1879.052734375	1496.135131835938	-191.2606964111328	-1797.061401367188	1484.07275390625	-265.0692138671875	-1819.348876953125	1351.315063476562	-341.6397705078125	-1789.30029296875	1132.244750976562	-358.8617248535156	-1845.881469726562	1115.46435546875	-293.6168518066406	-1672.475341796875	906.5046997070312	-307.6229553222656	-1745.494873046875	881.5082397460938	-361.9192199707031	-1767.7109375	1022.647888183594	-369.5219421386719	-1661.088500976562	726.2296752929688	-273.5231018066406	-1723.478271484375	811.7843017578125	-350.94921875	-1655.362670898438	826.739013671875	-325.8925170898438	-1827.769653320312	1498.095581054688	94.58281707763672	-1851.046020507812	1430.006713867188	162.4970550537109	-1858.482177734375	1138.771362304688	209.465087890625	-1860.888427734375	1133.483764648438	110.2494277954102	-1709.873168945312	916.31005859375	189.7138366699219	-1785.263549804688	897.2833862304688	236.3610229492188	-1830.857299804688	1066.991455078125	227.0756225585938	-1687.646240234375	728.7412719726562	165.2328643798828	-1680.610595703125	822.9849853515625	196.9280548095703	-1752.43896484375	814.12744140625	231.8549957275391	-1850.5908203125	1672.967163085938	-7.770864009857178	-1696.703247070312	1747.57080078125	-143.7222595214844	-1690.938232421875	1746.222900390625	-14.36859226226807	-1862.840576171875	1680.365356445312	-145.1021881103516	-1804.498291015625	990.8561401367188	-250.6801605224609	-1776.563720703125	1016.113586425781	117.5047912597656	-1689.161376953125	1042.876342773438	67.08391571044922	-1681.2353515625	1028.67822265625	-191.2414093017578	-1799.915161132812	496.7015991210938	-228.3247680664062	-1786.774780273438	638.7684936523438	-250.9894104003906	-1887.58740234375	40.59396362304688	-245.1073455810547	-1843.173583984375	276.8643798828125	-250.5386199951172	-1667.0751953125	39.40639114379883	-242.1593933105469	-1711.834838867188	39.54927444458008	-189.0454711914062	-1784.494506835938	32.39991760253906	-295.7166748046875	-1929.856323242188	39.64543151855469	-169.8990325927734	-1755.565185546875	514.621337890625	95.044921875	-1718.767578125	786.0736694335938	128.9918518066406	-1873.412109375	36.52087020874023	89.00658416748047	-1751.189453125	391.5892028808594	78.96775054931641	-1648.599243164062	40.98332214355469	73.10597229003906	-1700.100708007812	38.34127044677734	22.82904243469238	-1762.741333007812	34.61572265625	132.6050720214844	-1917.408325195312	35.06149291992188	16.95087242126465	
163	1.62	-1922.5126953125	1058.308715820312	-13.7855224609375	-1912.614135742188	1057.189453125	-136.8022003173828	-1915.410278320312	1096.026489257812	-73.5872802734375	-1648.955932617188	1302.131713867188	-63.88554382324219	-1944.409912109375	1251.331420898438	-82.72607421875	-1878.705322265625	1520.780883789062	-87.58833312988281	-1676.6162109375	1416.690307617188	-73.50447082519531	-1951.316162109375	1344.498901367188	14.45992279052734	-1878.631225585938	1496.187866210938	-189.9745483398438	-1796.674926757812	1484.154174804688	-263.8201599121094	-1819.100341796875	1351.453491210938	-340.4696960449219	-1789.227416992188	1132.404663085938	-357.86376953125	-1845.788208007812	1115.6279296875	-292.5860900878906	-1672.710327148438	906.3527221679688	-306.85498046875	-1745.806030273438	881.627685546875	-361.2533264160156	-1767.764038085938	1022.799072265625	-368.6302185058594	-1661.48828125	725.8582763671875	-272.9271545410156	-1724.073486328125	811.84326171875	-350.3885498046875	-1655.917724609375	826.5234375	-325.2462463378906	-1827.235595703125	1497.9150390625	95.84744262695312	-1850.573974609375	1429.8369140625	163.7220306396484	-1858.3212890625	1138.556884765625	210.4584197998047	-1860.7685546875	1133.392578125	111.2294464111328	-1709.959594726562	915.9783935546875	190.4542999267578	-1785.332641601562	896.9682006835938	237.0998077392578	-1830.79248046875	1066.7509765625	227.9915924072266	-1687.961547851562	728.4320068359375	165.6583709716797	-1680.842529296875	822.635498046875	197.5021057128906	-1752.635986328125	813.7735595703125	232.4687347412109	-1849.74560546875	1672.936157226562	-6.336456775665283	-1695.716796875	1747.446411132812	-142.2224426269531	-1689.917358398438	1745.894897460938	-12.86120986938477	-1861.977905273438	1680.546752929688	-143.6770172119141	-1804.4423828125	990.922607421875	-249.8640289306641	-1776.026123046875	1016.002807617188	118.4503936767578	-1688.69580078125	1042.712280273438	67.92092895507812	-1681.047607421875	1028.684204101562	-190.4037170410156	-1799.69580078125	496.7198791503906	-227.8513488769531	-1786.666137695312	638.8430786132812	-250.4098815917969	-1887.595458984375	40.59349822998047	-245.1096954345703	-1843.096923828125	276.9181213378906	-250.2596282958984	-1667.088500976562	39.41745758056641	-242.1678009033203	-1711.851318359375	39.56431579589844	-189.0634765625	-1784.5029296875	32.3554801940918	-295.7315368652344	-1929.8505859375	39.63616180419922	-169.8913726806641	-1755.2275390625	514.4808349609375	95.35809326171875	-1718.260375976562	785.8697509765625	129.5743713378906	-1873.4013671875	36.51864242553711	88.99668121337891	-1750.908447265625	391.4309387207031	79.19921875	-1648.609497070312	40.98777770996094	73.07485198974609	-1700.107421875	38.28635025024414	22.76886177062988	-1762.79541015625	34.66083145141602	132.5279998779297	-1917.42041015625	35.05184173583984	16.94617652893066	
